<svg id="visual" viewBox="0 0 900 675" width="900" height="675" xmlns="http://www.w3.org/2000/svg" xmlns:xlink="http://www.w3.org/1999/xlink" version="1.1"><path d="M0 89L30 89C60 89 120 89 180 86.7C240 84.3 300 79.7 360 85.3C420 91 480 107 540 101.5C600 96 660 69 720 58.8C780 48.7 840 55.3 870 58.7L900 62L900 0L870 0C840 0 780 0 720 0C660 0 600 0 540 0C480 0 420 0 360 0C300 0 240 0 180 0C120 0 60 0 30 0L0 0Z" fill="#2b124c"></path><path d="M0 332L30 308.3C60 284.7 120 237.3 180 225C240 212.7 300 235.3 360 236.5C420 237.7 480 217.3 540 203.8C600 190.3 660 183.7 720 179.2C780 174.7 840 172.3 870 171.2L900 170L900 60L870 56.7C840 53.3 780 46.7 720 56.8C660 67 600 94 540 99.5C480 105 420 89 360 83.3C300 77.7 240 82.3 180 84.7C120 87 60 87 30 87L0 87Z" fill="#32164e"></path><path d="M0 379L30 352C60 325 120 271 180 267.7C240 264.3 300 311.7 360 319.5C420 327.3 480 295.7 540 277.7C600 259.7 660 255.3 720 255.3C780 255.3 840 259.7 870 261.8L900 264L900 168L870 169.2C840 170.3 780 172.7 720 177.2C660 181.7 600 188.3 540 201.8C480 215.3 420 235.7 360 234.5C300 233.3 240 210.7 180 223C120 235.3 60 282.7 30 306.3L0 330Z" fill="#391a51"></path><path d="M0 440L30 418.7C60 397.3 120 354.7 180 356.8C240 359 300 406 360 402.5C420 399 480 345 540 326C600 307 660 323 720 332C780 341 840 343 870 344L900 345L900 262L870 259.8C840 257.7 780 253.3 720 253.3C660 253.3 600 257.7 540 275.7C480 293.7 420 325.3 360 317.5C300 309.7 240 262.3 180 265.7C120 269 60 323 30 350L0 377Z" fill="#401e53"></path><path d="M0 480L30 459.8C60 439.7 120 399.3 180 418.5C240 437.7 300 516.3 360 526.5C420 536.7 480 478.3 540 459.2C600 440 660 460 720 471.2C780 482.3 840 484.7 870 485.8L900 487L900 343L870 342C840 341 780 339 720 330C660 321 600 305 540 324C480 343 420 397 360 400.5C300 404 240 357 180 354.8C120 352.7 60 395.3 30 416.7L0 438Z" fill="#462256"></path><path d="M0 615L30 621.8C60 628.7 120 642.3 180 649.2C240 656 300 656 360 649.2C420 642.3 480 628.7 540 624.2C600 619.7 660 624.3 720 625.5C780 626.7 840 624.3 870 623.2L900 622L900 485L870 483.8C840 482.7 780 480.3 720 469.2C660 458 600 438 540 457.2C480 476.3 420 534.7 360 524.5C300 514.3 240 435.7 180 416.5C120 397.3 60 437.7 30 457.8L0 478Z" fill="#4c2758"></path><path d="M0 676L30 676C60 676 120 676 180 676C240 676 300 676 360 676C420 676 480 676 540 676C600 676 660 676 720 676C780 676 840 676 870 676L900 676L900 620L870 621.2C840 622.3 780 624.7 720 623.5C660 622.3 600 617.7 540 622.2C480 626.7 420 640.3 360 647.2C300 654 240 654 180 647.2C120 640.3 60 626.7 30 619.8L0 613Z" fill="#522b5b"></path></svg>